<?xml version="1.0" encoding="utf-8"?>
<!-- Generator: Adobe Illustrator 26.5.0, SVG Export Plug-In . SVG Version: 6.00 Build 0)  -->
<svg version="1.1" id="Capa_1" xmlns="http://www.w3.org/2000/svg" xmlns:xlink="http://www.w3.org/1999/xlink" x="0px" y="0px"
	 viewBox="0 0 40 40" style="enable-background:new 0 0 40 40;" xml:space="preserve">
<style type="text/css">
	.st0{fill:#FFFFFF;}
</style>
<g>
	<g>
		<path class="st0" d="M37.69,20c0-9.77-7.92-17.69-17.69-17.69S2.31,10.23,2.31,20c0,8.83,6.47,16.15,14.93,17.48V25.11h-4.49V20
			h4.49v-3.9c0-4.43,2.64-6.88,6.68-6.88c1.94,0,3.96,0.35,3.96,0.35v4.35h-2.23c-2.2,0-2.88,1.36-2.88,2.76V20h4.91l-0.78,5.11
			h-4.12v12.36C31.22,36.15,37.69,28.83,37.69,20z"/>
		<path d="M26.89,25.11L27.67,20h-4.91v-3.32c0-1.4,0.69-2.76,2.88-2.76h2.23V9.57c0,0-2.02-0.35-3.96-0.35
			c-4.04,0-6.68,2.45-6.68,6.88V20h-4.49v5.11h4.49v12.36c0.9,0.14,1.82,0.22,2.76,0.22s1.86-0.07,2.76-0.22V25.11H26.89z"/>
	</g>
</g>
</svg>
