<?xml version="1.0" encoding="utf-8"?>
<!-- Generator: Adobe Illustrator 26.5.0, SVG Export Plug-In . SVG Version: 6.00 Build 0)  -->
<svg version="1.1" id="Capa_1" xmlns="http://www.w3.org/2000/svg" xmlns:xlink="http://www.w3.org/1999/xlink" x="0px" y="0px"
	 viewBox="0 0 40 40" style="enable-background:new 0 0 40 40;" xml:space="preserve">
<style type="text/css">
	.st0{fill:#FFFFFF;}
</style>
<g>
	<circle class="st0" cx="20" cy="20" r="17.69"/>
	<g>
		<g>
			<path d="M25.49,13.31c-0.67,0-1.22,0.54-1.22,1.22c0,0.67,0.54,1.22,1.22,1.22c0.67,0,1.22-0.54,1.22-1.22
				S26.16,13.31,25.49,13.31z"/>
			<path d="M20.09,14.87c-2.82,0-5.11,2.29-5.11,5.11s2.29,5.11,5.11,5.11s5.11-2.29,5.11-5.11C25.19,17.16,22.9,14.87,20.09,14.87z
				 M20.09,23.25c-1.8,0-3.27-1.47-3.27-3.27c0-1.8,1.47-3.27,3.27-3.27c1.8,0,3.27,1.47,3.27,3.27S21.89,23.25,20.09,23.25z"/>
			<path d="M24.14,30.35h-8.28c-3.44,0-6.23-2.8-6.23-6.23v-8.28c0-3.44,2.79-6.23,6.23-6.23h8.28c3.44,0,6.23,2.79,6.23,6.23v8.28
				C30.37,27.55,27.58,30.35,24.14,30.35z M15.86,11.56c-2.36,0-4.28,1.92-4.28,4.28v8.28c0,2.36,1.92,4.28,4.28,4.28h8.28
				c2.36,0,4.28-1.92,4.28-4.28v-8.28c0-2.36-1.92-4.28-4.28-4.28C24.14,11.56,15.86,11.56,15.86,11.56z"/>
		</g>
	</g>
</g>
</svg>
