<?xml version="1.0" encoding="utf-8"?>
<!-- Generator: Adobe Illustrator 26.5.0, SVG Export Plug-In . SVG Version: 6.00 Build 0)  -->
<svg version="1.1" id="Capa_1" xmlns="http://www.w3.org/2000/svg" xmlns:xlink="http://www.w3.org/1999/xlink" x="0px" y="0px"
	 viewBox="0 0 220.38 48" style="enable-background:new 0 0 220.38 48;" xml:space="preserve">
<style type="text/css">
	.st0{fill:url(#SVGID_1_);}
	.st1{fill:url(#SVGID_00000174602074806253015390000014701817184488942208_);}
	.st2{fill:#DFE6ED;}
	.st3{clip-path:url(#SVGID_00000070098417666667565690000018309467883883064511_);}
	.st4{clip-path:url(#SVGID_00000039846016906339786290000000474748906051938460_);}
	.st5{fill:#FF7A0B;}
	.st6{fill:url(#SVGID_00000059278180170546947350000004978544197609702286_);}
	.st7{fill:#FFFFFF;}
	.st8{fill:#FF6D00;}
	.st9{fill:url(#SVGID_00000066495597293945847760000012777157121725890984_);}
	.st10{fill:url(#SVGID_00000019670471015475641830000011593432877414666426_);}
	.st11{fill:url(#SVGID_00000168087261917959059350000010006591616255025024_);}
	.st12{fill:url(#SVGID_00000085227060131660999020000009042198229372107944_);}
	.st13{fill:url(#SVGID_00000093894490628240629520000006709439171428065710_);}
	.st14{fill:url(#SVGID_00000153691607524739771030000016763092678294750120_);}
	.st15{fill:url(#SVGID_00000031887783811696705960000002256968506327830662_);}
	.st16{fill:url(#SVGID_00000122698965439087693720000016192427351538103481_);}
	.st17{fill:#FFC800;}
</style>
<g>
	<linearGradient id="SVGID_1_" gradientUnits="userSpaceOnUse" x1="16.3351" y1="2.5" x2="16.3351" y2="42.5924">
		<stop  offset="0" style="stop-color:#FF9C0B"/>
		<stop  offset="1" style="stop-color:#FF7A0B"/>
	</linearGradient>
	<path class="st0" d="M29.51,23.22c-0.07,3.46-2.04,5.11-5.89,4.93c-1.82,0-3.77-0.34-5.84-1.02c-2.14-0.68-3.23,0.5-3.27,3.54V44.7
		H3.16V23.92c0-3.61,1.89-5.41,5.68-5.41c2.86,0,4.62,0.98,5.3,2.95c3.18-2.43,6.16-3.64,8.94-3.64
		C27.3,17.81,29.44,19.62,29.51,23.22z"/>
	
		<linearGradient id="SVGID_00000010285150826369052160000012495264179023360659_" gradientUnits="userSpaceOnUse" x1="72.9003" y1="2.5" x2="72.9003" y2="42.5924">
		<stop  offset="0" style="stop-color:#FF9C0B"/>
		<stop  offset="1" style="stop-color:#FF7A0B"/>
	</linearGradient>
	<path style="fill:url(#SVGID_00000010285150826369052160000012495264179023360659_);" d="M75.55,8.01c0-3.57,1.89-5.36,5.68-5.36
		c3.82,0,5.73,1.79,5.73,5.36v23.94c-0.18,4.04-1.46,7.23-3.86,9.59c-2.5,2.57-5.89,3.86-10.18,3.86c-4.25,0-7.66-1.29-10.23-3.86
		c-2.36-2.36-3.64-5.55-3.86-9.59c0.21-4.07,1.5-7.27,3.86-9.59c2.57-2.57,5.98-3.86,10.23-3.86c0.96,0,1.84,0.05,2.62,0.16V8.01z
		 M72.93,36.35c2.07-0.11,3.18-1.57,3.32-4.39c-0.18-2.82-1.29-4.3-3.32-4.45c-2.07,0.14-3.18,1.62-3.32,4.45
		C69.75,34.77,70.86,36.24,72.93,36.35z"/>
	
		<linearGradient id="SVGID_00000003811505882445392160000004215565239040951987_" gradientUnits="userSpaceOnUse" x1="102.3536" y1="2.5" x2="102.3536" y2="42.5924">
		<stop  offset="0" style="stop-color:#FF9C0B"/>
		<stop  offset="1" style="stop-color:#FF7A0B"/>
	</linearGradient>
	<path style="fill:url(#SVGID_00000003811505882445392160000004215565239040951987_);" d="M102.33,45.4
		c-4.25,0-7.64-1.29-10.18-3.86c-2.39-2.36-3.68-5.55-3.86-9.59c0.14-4.07,1.43-7.27,3.86-9.59c2.54-2.57,5.93-3.86,10.18-3.86
		c4.25,0,7.66,1.29,10.23,3.86c2.36,2.32,3.64,5.52,3.86,9.59c-0.21,4.04-1.5,7.23-3.86,9.59C109.99,44.11,106.58,45.4,102.33,45.4z
		 M105.65,31.95c-0.14-2.82-1.25-4.3-3.32-4.45c-2.04,0.14-3.14,1.62-3.32,4.45c0.14,2.82,1.25,4.29,3.32,4.39
		C104.4,36.24,105.5,34.77,105.65,31.95z"/>
	
		<linearGradient id="SVGID_00000109738054471701567350000008799698460514562695_" gradientUnits="userSpaceOnUse" x1="131.8069" y1="2.5" x2="131.8069" y2="42.5924">
		<stop  offset="0" style="stop-color:#FF9C0B"/>
		<stop  offset="1" style="stop-color:#FF7A0B"/>
	</linearGradient>
	<path style="fill:url(#SVGID_00000109738054471701567350000008799698460514562695_);" d="M135.1,19.21h10.77v11.68
		c0,4.57-1.29,8.14-3.86,10.71c-2.64,2.54-6.05,3.8-10.23,3.8s-7.59-1.27-10.23-3.8c-2.54-2.64-3.8-6.21-3.8-10.71V19.21h10.71
		v12.05c0,3.29,1.11,4.98,3.32,5.09c2.21-0.11,3.32-1.8,3.32-5.09V19.21z"/>
	
		<linearGradient id="SVGID_00000089574979273904251420000002487410139398457788_" gradientUnits="userSpaceOnUse" x1="161.2607" y1="2.5" x2="161.2607" y2="42.5924">
		<stop  offset="0" style="stop-color:#FF9C0B"/>
		<stop  offset="1" style="stop-color:#FF7A0B"/>
	</linearGradient>
	<path style="fill:url(#SVGID_00000089574979273904251420000002487410139398457788_);" d="M158.61,18.67
		c0.86-0.11,1.75-0.16,2.68-0.16c4.29,0,7.68,1.29,10.18,3.86c2.43,2.32,3.71,5.52,3.86,9.59c-0.18,4.04-1.46,7.23-3.86,9.59
		c-2.5,2.57-5.89,3.86-10.18,3.86c-4.25,0-7.66-1.29-10.23-3.86c-2.36-2.36-3.64-5.55-3.86-9.59V8.01c0-3.61,1.91-5.41,5.73-5.41
		c3.78,0,5.68,1.8,5.68,5.41V18.67z M164.61,31.95c-0.18-2.82-1.29-4.3-3.32-4.45c-2.07,0.14-3.18,1.62-3.32,4.45
		c0.14,2.82,1.25,4.29,3.32,4.39C163.36,36.24,164.47,34.77,164.61,31.95z"/>
	
		<linearGradient id="SVGID_00000073704912473353853020000006567896543937645489_" gradientUnits="userSpaceOnUse" x1="182.3586" y1="2.5" x2="182.3586" y2="42.5924">
		<stop  offset="0" style="stop-color:#FF9C0B"/>
		<stop  offset="1" style="stop-color:#FF7A0B"/>
	</linearGradient>
	<path style="fill:url(#SVGID_00000073704912473353853020000006567896543937645489_);" d="M188.06,44.7h-11.41V8.07
		c0-3.61,1.89-5.41,5.68-5.41c3.82,0,5.73,1.8,5.73,5.41V44.7z"/>
	<g>
		
			<linearGradient id="SVGID_00000017517324408742431200000010062370669424087196_" gradientUnits="userSpaceOnUse" x1="203.3102" y1="2.67" x2="203.3102" y2="45.0838">
			<stop  offset="0" style="stop-color:#FF9C0B"/>
			<stop  offset="1" style="stop-color:#FF7A0B"/>
		</linearGradient>
		<path style="fill:url(#SVGID_00000017517324408742431200000010062370669424087196_);" d="M193.09,22.37
			c2.57-2.57,5.98-3.86,10.23-3.86c4.28,0,7.68,1.29,10.18,3.86c1.93,1.89,3.12,4.27,3.59,7.12c0.43,2.39-0.46,3.62-2.68,3.7h-13.98
			c0.32,2.32,1.29,3.48,2.89,3.48c1.29,0,2.16-0.8,2.62-2.41h8.78c1.75-0.04,2.36,0.73,1.82,2.3c-0.64,1.96-1.66,3.62-3.05,4.98
			c-2.5,2.57-5.89,3.86-10.18,3.86c-4.25,0-7.66-1.29-10.23-3.86c-1.89-1.89-3.09-4.29-3.59-7.18c-0.36-2.43,0.55-3.66,2.73-3.7
			h13.93c-0.25-2.28-1.2-3.43-2.84-3.43c-1.29,0-2.18,0.8-2.68,2.41h-8.78c-1.79,0-2.38-0.79-1.77-2.36
			C190.74,25.37,191.73,23.72,193.09,22.37z"/>
	</g>
	<g>
		
			<linearGradient id="SVGID_00000030457304511260004960000010129584224707176832_" gradientUnits="userSpaceOnUse" x1="43.5925" y1="2.6432" x2="43.5925" y2="45.057">
			<stop  offset="0" style="stop-color:#FF9C0B"/>
			<stop  offset="1" style="stop-color:#FF7A0B"/>
		</linearGradient>
		<path style="fill:url(#SVGID_00000030457304511260004960000010129584224707176832_);" d="M33.37,22.34
			c2.57-2.57,5.98-3.86,10.23-3.86c4.28,0,7.68,1.29,10.18,3.86c1.93,1.89,3.12,4.27,3.59,7.12c0.43,2.39-0.46,3.62-2.68,3.7H40.71
			c0.32,2.32,1.29,3.48,2.89,3.48c1.29,0,2.16-0.8,2.62-2.41h8.78c1.75-0.04,2.36,0.73,1.82,2.3c-0.64,1.96-1.66,3.62-3.05,4.98
			c-2.5,2.57-5.89,3.86-10.18,3.86c-4.25,0-7.66-1.29-10.23-3.86c-1.89-1.89-3.09-4.29-3.59-7.18c-0.36-2.43,0.55-3.66,2.73-3.7
			h13.93c-0.25-2.28-1.2-3.43-2.84-3.43c-1.29,0-2.18,0.8-2.68,2.41h-8.78c-1.79,0-2.38-0.79-1.77-2.36
			C31.02,25.34,32.02,23.7,33.37,22.34z"/>
	</g>
</g>
</svg>
