<?xml version="1.0" encoding="utf-8"?>
<!-- Generator: Adobe Illustrator 26.5.0, SVG Export Plug-In . SVG Version: 6.00 Build 0)  -->
<svg version="1.1" id="Capa_1" xmlns="http://www.w3.org/2000/svg" xmlns:xlink="http://www.w3.org/1999/xlink" x="0px" y="0px"
	 viewBox="0 0 40 40" style="enable-background:new 0 0 40 40;" xml:space="preserve">
<style type="text/css">
	.st0{fill:#FFFFFF;}
</style>
<g>
	<circle class="st0" cx="20" cy="20" r="17.69"/>
	<path d="M29.77,13.94c-0.61,0.28-1.29,0.45-1.95,0.56c0.31-0.05,0.77-0.62,0.96-0.85c0.28-0.35,0.52-0.75,0.65-1.18
		c0.02-0.03,0.03-0.08,0-0.1c-0.04-0.02-0.07-0.01-0.1,0.01c-0.74,0.4-1.5,0.68-2.31,0.89c-0.07,0.02-0.12,0-0.16-0.04
		c-0.07-0.08-0.13-0.15-0.2-0.21c-0.34-0.29-0.71-0.52-1.12-0.69c-0.54-0.22-1.13-0.31-1.72-0.28c-0.57,0.04-1.13,0.2-1.63,0.46
		c-0.51,0.26-0.96,0.63-1.32,1.07c-0.37,0.46-0.65,1-0.79,1.57c-0.14,0.55-0.12,1.1-0.04,1.66c0.01,0.09,0,0.11-0.08,0.09
		c-3.18-0.47-5.81-1.61-7.95-4.05c-0.09-0.11-0.14-0.11-0.22,0.01c-0.94,1.4-0.48,3.66,0.69,4.76c0.16,0.15,0.32,0.3,0.49,0.43
		c-0.06,0.01-0.84-0.07-1.53-0.43c-0.09-0.06-0.14-0.03-0.15,0.08c-0.01,0.15,0,0.29,0.03,0.46c0.18,1.42,1.16,2.74,2.51,3.25
		c0.16,0.07,0.34,0.13,0.51,0.16c-0.31,0.07-0.62,0.12-1.5,0.05c-0.11-0.02-0.15,0.03-0.11,0.14c0.66,1.8,2.09,2.34,3.16,2.65
		c0.14,0.02,0.29,0.02,0.43,0.06c-0.01,0.01-0.02,0.01-0.03,0.03c-0.36,0.54-1.59,0.94-2.16,1.14c-1.04,0.36-2.18,0.53-3.28,0.42
		c-0.18-0.03-0.21-0.02-0.26,0c-0.05,0.03-0.01,0.07,0.05,0.12c0.22,0.15,0.45,0.28,0.68,0.4c0.7,0.37,1.43,0.67,2.19,0.88
		c3.94,1.09,8.38,0.29,11.33-2.65c2.32-2.31,3.14-5.49,3.14-8.68c0-0.12,0.15-0.19,0.23-0.26c0.6-0.45,1.09-1,1.54-1.6
		c0.1-0.14,0.1-0.26,0.1-0.31c0-0.01,0-0.02,0-0.02C29.85,13.89,29.85,13.9,29.77,13.94z"/>
</g>
</svg>
